<?xml version="1.0" encoding="iso-8859-1"?>
<!-- Generator: Adobe Illustrator 19.0.0, SVG Export Plug-In . SVG Version: 6.00 Build 0)  -->
<svg version="1.1" id="Layer_1" xmlns="http://www.w3.org/2000/svg" xmlns:xlink="http://www.w3.org/1999/xlink" x="0px" y="0px"
	 viewBox="0 0 511.607 511.607" style="enable-background:new 0 0 511.607 511.607;" xml:space="preserve">
<path style="fill:#E6E9ED;" d="M468.985,127.904V74.617c0-11.788-9.555-21.327-21.326-21.327H21.327C9.555,53.29,0,62.828,0,74.617
	v53.287H468.985z"/>
<polygon style="fill:#656D78;" points="395.886,415.678 381.178,415.678 0,415.678 0,95.928 468.985,95.928 468.985,319.082 "/>
<path style="fill:#ED5564;" d="M42.639,74.617c0,5.886-4.763,10.648-10.664,10.648c-5.87,0-10.647-4.762-10.647-10.648
	s4.777-10.663,10.647-10.663C37.876,63.953,42.639,68.731,42.639,74.617z"/>
<path style="fill:#FFCE54;" d="M74.614,74.617c0,5.886-4.762,10.648-10.663,10.648c-5.871,0-10.648-4.762-10.648-10.648
	s4.776-10.663,10.647-10.663C69.852,63.953,74.614,68.731,74.614,74.617z"/>
<path style="fill:#A0D468;" d="M106.588,74.617c0,5.886-4.762,10.648-10.663,10.648c-5.87,0-10.647-4.762-10.647-10.648
	s4.777-10.663,10.647-10.663C101.826,63.953,106.588,68.731,106.588,74.617z"/>
<path style="fill:#FC6E51;" d="M373.06,138.551H53.302c-5.886,0-10.663,4.777-10.663,10.663s4.777,10.664,10.663,10.664H373.06
	c5.87,0,10.647-4.778,10.647-10.664C383.707,143.328,378.93,138.551,373.06,138.551z"/>
<path style="fill:#AC92EB;" d="M53.302,202.516h170.523c5.901,0,10.663-4.777,10.663-10.664c0-5.886-4.762-10.663-10.663-10.663
	H53.302c-5.886,0-10.663,4.777-10.663,10.663C42.639,197.74,47.416,202.516,53.302,202.516z"/>
<path style="fill:#48CFAD;" d="M287.783,223.828H53.302c-5.886,0-10.663,4.778-10.663,10.664s4.777,10.648,10.663,10.648h234.481
	c5.9,0,10.647-4.762,10.647-10.648S293.684,223.828,287.783,223.828z"/>
<path style="fill:#5D9CEC;" d="M53.302,287.78h149.212c5.886,0,10.663-4.778,10.663-10.664s-4.777-10.648-10.663-10.648H53.302
	c-5.886,0-10.663,4.763-10.663,10.648S47.416,287.78,53.302,287.78z"/>
<g>
	<path style="fill:#FFCE54;" d="M307.643,334.413c4.309,0,8.367-2.639,9.992-6.916c2.061-5.512-0.75-11.663-6.246-13.725
		c-20.515-7.696-23.668-27.354-23.668-27.556c-0.875-5.824-6.277-9.837-12.116-8.978c-5.831,0.858-9.844,6.276-8.985,12.1
		c0.188,1.312,5.121,32.334,37.275,44.388C305.145,334.195,306.393,334.413,307.643,334.413z"/>
	<path style="fill:#FFCE54;" d="M479.571,458.318c0.5,0,1.03-0.047,1.561-0.125c5.84-0.858,9.837-6.276,8.994-12.1
		c-0.188-1.312-5.121-32.334-37.283-44.388c-5.527-2.076-11.648,0.719-13.74,6.229c-2.061,5.512,0.75,11.663,6.246,13.724
		c20.515,7.697,23.668,27.354,23.699,27.557C469.828,454.508,474.356,458.318,479.571,458.318z"/>
	<path style="fill:#FFCE54;" d="M223.825,309.09H53.302c-5.886,0-10.663,4.777-10.663,10.664c0,5.886,4.777,10.663,10.663,10.663
		h170.523c5.901,0,10.663-4.777,10.663-10.663C234.489,313.866,229.727,309.09,223.825,309.09z"/>
</g>
<path style="fill:#ED5564;" d="M138.564,351.728H53.302c-5.886,0-10.663,4.777-10.663,10.664c0,5.886,4.777,10.647,10.663,10.647
	h85.262c5.886,0,10.663-4.762,10.663-10.647C149.227,356.505,144.45,351.728,138.564,351.728z"/>
<g>
	<path style="fill:#FFCE54;" d="M500.96,373.039H266.463c-5.886,0-10.647-4.762-10.647-10.647c0-5.887,4.762-10.664,10.647-10.664
		H500.96c5.87,0,10.647,4.777,10.647,10.664C511.608,368.279,506.83,373.039,500.96,373.039z"/>
	<path style="fill:#FFCE54;" d="M362.6,277.569c-3.623,0-7.151-1.858-9.149-5.184l-32.194-53.739
		c-2.997-5.043-1.373-11.601,3.686-14.614c5.059-3.029,11.584-1.39,14.613,3.669l32.162,53.739
		c3.029,5.043,1.405,11.585-3.653,14.614C366.346,277.083,364.442,277.569,362.6,277.569z"/>
	<path style="fill:#FFCE54;" d="M404.91,277.569c-1.843,0-3.748-0.484-5.465-1.515c-5.027-3.029-6.682-9.571-3.653-14.63
		l32.162-53.723c3.028-5.059,9.556-6.698,14.614-3.669c5.059,3.013,6.682,9.555,3.684,14.614l-32.162,53.739
		C412.092,275.71,408.532,277.569,404.91,277.569z"/>
	<path style="fill:#FFCE54;" d="M459.805,334.413c-4.31,0-8.369-2.639-9.961-6.916c-2.092-5.512,0.718-11.663,6.213-13.725
		c20.547-7.696,23.67-27.354,23.701-27.556c0.843-5.824,6.275-9.837,12.084-8.978c5.84,0.858,9.867,6.276,8.993,12.1
		c-0.188,1.312-5.121,32.334-37.284,44.388C462.334,334.195,461.053,334.413,459.805,334.413z"/>
	<path style="fill:#FFCE54;" d="M287.783,458.318c-0.5,0-1.031-0.047-1.562-0.125c-5.808-0.858-9.836-6.276-8.992-12.1
		c0.219-1.312,5.121-32.334,37.283-44.388c5.527-2.076,11.678,0.719,13.739,6.229c2.062,5.512-0.718,11.663-6.245,13.724
		c-20.516,7.697-23.638,27.354-23.669,27.557C297.557,454.508,292.997,458.318,287.783,458.318z"/>
</g>
<path style="fill:#ED5564;" d="M468.922,341.065c0,64.762-24.355,117.252-85.215,117.252c-60.858,0-85.215-52.49-85.215-117.252
	c0-64.747,31.695-95.925,85.215-95.925C437.229,245.139,468.922,276.319,468.922,341.065z"/>
<g>
	<path style="fill:#DA4453;" d="M373.06,457.74c3.403,0.375,6.964,0.578,10.647,0.578c3.686,0,7.245-0.203,10.648-0.578V309.09
		h-21.296L373.06,457.74L373.06,457.74z"/>
	<path style="fill:#DA4453;" d="M301.584,309.09h164.247c-9.149-43.06-38.313-63.95-82.124-63.95
		C339.899,245.139,310.734,266.03,301.584,309.09z"/>
</g>
<g>
</g>
<g>
</g>
<g>
</g>
<g>
</g>
<g>
</g>
<g>
</g>
<g>
</g>
<g>
</g>
<g>
</g>
<g>
</g>
<g>
</g>
<g>
</g>
<g>
</g>
<g>
</g>
<g>
</g>
</svg>
