<?xml version="1.0" encoding="iso-8859-1"?>
<!-- Generator: Adobe Illustrator 19.0.0, SVG Export Plug-In . SVG Version: 6.00 Build 0)  -->
<svg version="1.1" id="Layer_1" xmlns="http://www.w3.org/2000/svg" xmlns:xlink="http://www.w3.org/1999/xlink" x="0px" y="0px"
	 viewBox="0 0 502 502" style="enable-background:new 0 0 502 502;" xml:space="preserve">
<g>
	<g>
		<g>
			<rect x="5" y="5" style="fill:#3A559F;" width="492" height="492"/>
		</g>
		<g>
			<path d="M497,502H5c-2.761,0-5-2.239-5-5V5c0-2.761,2.239-5,5-5h492c2.761,0,5,2.239,5,5v492C502,499.761,499.761,502,497,502z
				 M10,492h482V10H10V492z"/>
		</g>
	</g>
	<g>
		<g>
			<g>
				<path style="fill:#FFFFFF;" d="M280.826,268.275h57.215l9.178-69.636h-66.393v-48.402c0-13.515,10.954-24.47,24.469-24.47H348.3
					V63.154h-60.1c-42.534,0-77.009,34.475-77.009,77.004v58.481H153.7v69.636h57.49v170.571h69.636V268.275z"/>
			</g>
		</g>
		<g>
			<g>
				<path d="M280.826,443.846H211.19c-2.761,0-5-2.239-5-5V273.274H153.7c-2.761,0-5-2.239-5-5v-69.635c0-2.761,2.239-5,5-5h52.49
					v-53.481c0-45.217,36.789-82.004,82.009-82.004h60.1c2.761,0,5,2.239,5,5v62.613c0,2.761-2.239,5-5,5h-43.005
					c-10.735,0-19.469,8.734-19.469,19.47v43.402h61.393c1.44,0,2.81,0.621,3.759,1.704c0.95,1.083,1.386,2.522,1.198,3.95
					l-9.178,69.635c-0.328,2.487-2.448,4.347-4.957,4.347h-52.215v44.019c0,2.761-2.239,5-5,5s-5-2.239-5-5v-49.019
					c0-2.761,2.239-5,5-5h52.831l7.86-59.635h-60.69c-2.761,0-5-2.239-5-5v-48.402c0-16.25,13.22-29.47,29.469-29.47H343.3V68.154
					h-55.1c-39.706,0-72.009,32.301-72.009,72.004v58.481c0,2.761-2.239,5-5,5H158.7v59.635h52.49c2.761,0,5,2.239,5,5v165.571
					h59.636v-27.552c0-2.761,2.239-5,5-5s5,2.239,5,5v32.552C285.826,441.607,283.587,443.846,280.826,443.846z M280.826,375.292
					c-2.761,0-5-2.239-5-5v-18c0-2.761,2.239-5,5-5s5,2.239,5,5v18C285.826,373.054,283.587,375.292,280.826,375.292z"/>
			</g>
		</g>
	</g>
	<g>
		<path d="M52.707,104.293c-2.761,0-5-2.239-5-5v-43c0-2.761,2.239-5,5-5s5,2.239,5,5v43
			C57.707,102.054,55.468,104.293,52.707,104.293z"/>
	</g>
	<g>
		<path d="M52.707,454.293c-2.761,0-5-2.239-5-5v-300c0-2.761,2.239-5,5-5s5,2.239,5,5v300
			C57.707,452.054,55.468,454.293,52.707,454.293z"/>
	</g>
</g>
<g>
</g>
<g>
</g>
<g>
</g>
<g>
</g>
<g>
</g>
<g>
</g>
<g>
</g>
<g>
</g>
<g>
</g>
<g>
</g>
<g>
</g>
<g>
</g>
<g>
</g>
<g>
</g>
<g>
</g>
</svg>
