<?xml version="1.0" encoding="iso-8859-1"?>
<!-- Generator: Adobe Illustrator 19.0.0, SVG Export Plug-In . SVG Version: 6.00 Build 0)  -->
<svg version="1.1" id="Layer_1" xmlns="http://www.w3.org/2000/svg" xmlns:xlink="http://www.w3.org/1999/xlink" x="0px" y="0px"
	 viewBox="0 0 513.173 513.173" style="enable-background:new 0 0 513.173 513.173;" xml:space="preserve">
<g transform="translate(1 1)">
	<path id="SVGCleanerId_0" style="fill:#FD9808;" d="M309.347,69.987c-29.867-28.16-85.333-12.8-98.133,0
		c-21.333,19.627-40.96,44.373-40.96,69.973c0,0,5.973,85.333,88.747,85.333s90.453-85.333,90.453-85.333
		C349.453,114.36,329.827,89.613,309.347,69.987"/>
	<g>
		<path id="SVGCleanerId_0_1_" style="fill:#FD9808;" d="M309.347,69.987c-29.867-28.16-85.333-12.8-98.133,0
			c-21.333,19.627-40.96,44.373-40.96,69.973c0,0,5.973,85.333,88.747,85.333s90.453-85.333,90.453-85.333
			C349.453,114.36,329.827,89.613,309.347,69.987"/>
	</g>
	<path id="SVGCleanerId_1" style="fill:#FFDD09;" d="M288.867,69.987c-25.6-28.16-73.387-12.8-84.48,0
		c-17.067,19.627-34.133,44.373-34.133,69.973c0,0,5.12,85.333,75.947,85.333s77.653-85.333,77.653-85.333
		C323.853,114.36,306.787,89.613,288.867,69.987"/>
	<g>
		<path id="SVGCleanerId_1_1_" style="fill:#FFDD09;" d="M288.867,69.987c-25.6-28.16-73.387-12.8-84.48,0
			c-17.067,19.627-34.133,44.373-34.133,69.973c0,0,5.12,85.333,75.947,85.333s77.653-85.333,77.653-85.333
			C323.853,114.36,306.787,89.613,288.867,69.987"/>
	</g>
	<path style="fill:#FFFFFF;" d="M210.36,69.987c14.507-13.653,34.133-17.067,52.907-15.36c-11.947,0.853-23.893,5.12-32.427,15.36
		c-17.92,19.627-34.987,44.373-34.987,69.973c0,0,5.973,80.213,71.68,85.333c-2.56,0-4.267,0-6.827,0
		c-82.773,0-90.453-85.333-90.453-85.333C170.253,114.36,189.88,89.613,210.36,69.987"/>
	<path style="fill:#FD9808;" d="M400.653,296.12c0-88.747-30.72-133.973-45.227-151.04c-1.707-1.707-4.267-3.413-5.973-5.12
		c-0.853,9.387-12.8,84.48-90.453,84.48s-87.893-75.093-88.747-84.48c-2.56,0.853-4.267,2.56-5.973,5.12
		c-14.507,17.067-45.227,62.293-45.227,151.04c0,0-2.56,68.267,69.973,140.8l11.093,11.093c33.28,33.28,86.187,33.28,119.467,0
		l11.093-11.093C403.213,364.387,400.653,296.12,400.653,296.12"/>
	<path style="fill:#FFDD09;" d="M375.053,296.12c0-88.747-21.333-122.027-34.133-139.093c-1.707-1.707,1.707,0.853,0,0
		c-0.853,9.387-22.187,68.267-90.453,68.267s-76.8-75.093-77.653-84.48c-1.707,0.853-4.267,2.56-5.12,5.12
		c-12.8,17.067-39.253,62.293-39.253,151.04c0,0-1.707,68.267,61.44,140.8l9.387,11.093c29.013,33.28,75.947,33.28,104.96,0
		l9.387-11.093C376.76,364.387,375.053,296.12,375.053,296.12"/>
	<path style="fill:#FFFFFF;" d="M119.053,296.12c0-88.747,30.72-133.973,45.227-151.04c1.707-1.707,4.267-3.413,5.973-5.12
		c0,2.56,1.707,11.093,5.12,20.48c-12.8,17.92-30.72,53.76-30.72,134.827c0,0-1.707,68.267,61.44,140.8l9.387,11.093
		c13.653,15.36,30.72,23.04,48.64,24.747c-23.04,0.853-46.933-6.827-64-24.747l-11.093-11.093
		C116.493,364.387,119.053,296.12,119.053,296.12"/>
	<path id="SVGCleanerId_2" d="M259,233.827c-89.6,0-97.28-92.16-97.28-93.013c0-24.747,14.507-50.347,42.667-76.8
		c16.213-15.36,76.8-31.573,110.08,0l0,0c29.013,26.453,42.667,52.907,42.667,75.947C357.987,141.667,348.6,233.827,259,233.827z
		 M264.12,62.307c-20.48,0-40.96,7.68-46.933,13.653c-25.6,23.04-38.4,45.227-38.4,64c0,2.56,5.973,76.8,80.213,76.8
		s81.92-74.24,81.92-77.653c0-17.92-12.8-40.107-37.547-63.147l0,0C292.28,66.573,277.773,62.307,264.12,62.307z"/>
	<path d="M204.387,80.227c-2.56,0-4.267-0.853-5.973-2.56L164.28,43.533c-3.413-3.413-3.413-8.533,0-11.947s8.533-3.413,11.947,0
		L210.36,65.72c3.413,3.413,3.413,8.533,0,11.947C208.653,79.373,206.947,80.227,204.387,80.227z"/>
	<path d="M315.32,80.227c-2.56,0-4.267-0.853-5.973-2.56c-3.413-3.413-3.413-8.533,0-11.947l34.133-34.133
		c3.413-3.413,8.533-3.413,11.947,0c3.413,3.413,3.413,8.533,0,11.947l-34.133,34.133C319.587,79.373,317.88,80.227,315.32,80.227z"
		/>
	<path d="M392.12,208.227c-2.56,0-5.12-0.853-6.827-3.413c-2.56-3.413-2.56-9.387,1.707-11.947l45.227-35.84h45.227
		c5.12,0,8.533,3.413,8.533,8.533s-3.413,8.533-8.533,8.533H438.2l-40.107,32.427C395.533,207.373,393.827,208.227,392.12,208.227z"
		/>
	<path d="M503.053,361.827c-2.56,0-5.12-1.707-6.827-3.413l-32.427-48.64l-64.853-16.213c-4.267-0.853-7.68-5.973-5.973-10.24
		c0.853-4.267,5.973-7.68,10.24-5.973l71.68,17.92l35.84,53.76c2.56,4.267,1.707,9.387-2.56,11.947
		C506.467,360.973,504.76,361.827,503.053,361.827z"/>
	<path d="M434.787,481.293c-3.413,0-6.827-2.56-7.68-5.973l-16.213-47.787l-47.787-23.893c-4.267-1.707-5.973-6.827-3.413-11.093
		s6.827-5.973,11.093-3.413L425.4,416.44l17.92,54.613c1.707,4.267-0.853,9.387-5.12,11.093
		C436.493,481.293,435.64,481.293,434.787,481.293z"/>
	<path d="M76.387,481.293c-0.853,0-1.707,0-2.56-0.853c-4.267-1.707-6.827-5.973-5.12-11.093l17.92-54.613l63.147-27.307
		c4.267-1.707,9.387,0,11.093,4.267c1.707,4.267,0,9.387-4.267,11.093l-56.32,23.893l-16.213,47.787
		C83.213,478.733,79.8,481.293,76.387,481.293z"/>
	<path d="M8.12,361.827c-1.707,0-3.413-0.853-5.12-1.707c-4.267-2.56-5.12-7.68-2.56-11.947l35.84-53.76l71.68-17.92
		c4.267-0.853,9.387,1.707,10.24,5.973s-1.707,9.387-5.973,10.24L47.373,308.92l-32.427,48.64
		C13.24,360.12,10.68,361.827,8.12,361.827z"/>
	<path d="M127.587,208.227c-1.707,0-3.413-0.853-5.12-1.707l-40.96-32.427H42.253c-5.12,0-8.533-3.413-8.533-8.533
		c0-5.12,3.413-8.533,8.533-8.533h46.08l45.227,35.84c3.413,2.56,4.267,8.533,1.707,11.947
		C132.707,207.373,130.147,208.227,127.587,208.227z"/>
	<g>
		<path id="SVGCleanerId_2_1_" d="M259,233.827c-89.6,0-97.28-92.16-97.28-93.013c0-24.747,14.507-50.347,42.667-76.8
			c16.213-15.36,76.8-31.573,110.08,0l0,0c29.013,26.453,42.667,52.907,42.667,75.947C357.987,141.667,348.6,233.827,259,233.827z
			 M264.12,62.307c-20.48,0-40.96,7.68-46.933,13.653c-25.6,23.04-38.4,45.227-38.4,64c0,2.56,5.973,76.8,80.213,76.8
			s81.92-74.24,81.92-77.653c0-17.92-12.8-40.107-37.547-63.147l0,0C292.28,66.573,277.773,62.307,264.12,62.307z"/>
	</g>
	<path d="M259.853,481.293c-24.747,0-47.787-9.387-65.707-27.307l-11.093-11.093c-74.24-74.24-72.533-143.36-72.533-146.773
		c0-92.16,33.28-139.947,46.933-156.16c2.56-2.56,5.12-5.12,8.533-6.827l11.093-5.973l1.707,12.8
		c7.68,73.387,68.267,76.8,80.213,76.8c11.947,0,73.387-3.413,81.92-76.8l1.707-12.8l11.093,5.973
		c3.413,1.707,5.973,4.267,8.533,6.827c14.507,16.213,46.933,64,46.933,156.16c0,5.12,0.853,73.387-72.533,146.773l-11.093,11.093
		C307.64,471.907,284.6,481.293,259.853,481.293z M165.133,158.733c-14.507,19.627-37.547,62.293-37.547,138.24
		c0,0.853-0.853,65.707,68.267,134.827l11.093,11.093c14.507,14.507,33.28,22.187,53.76,22.187s39.253-7.68,53.76-22.187
		L325.56,431.8c69.12-69.12,68.267-133.973,68.267-134.827l0,0c0-75.947-23.04-119.467-37.547-138.24
		c-7.68,26.453-29.867,75.947-95.573,75.947C193.293,233.827,171.96,185.187,165.133,158.733z"/>
	<path d="M221.453,455.693h-17.067v-102.4c0-33.28-26.453-59.733-59.733-59.733h-25.6v-17.067h25.6c42.667,0,76.8,34.133,76.8,76.8
		V455.693z"/>
	<path d="M315.32,455.693h-17.067v-102.4c0-42.667,34.133-76.8,76.8-76.8h25.6v17.067h-25.6c-33.28,0-59.733,26.453-59.733,59.733
		V455.693z"/>
</g>
<g>
</g>
<g>
</g>
<g>
</g>
<g>
</g>
<g>
</g>
<g>
</g>
<g>
</g>
<g>
</g>
<g>
</g>
<g>
</g>
<g>
</g>
<g>
</g>
<g>
</g>
<g>
</g>
<g>
</g>
</svg>
