<svg width="24px" height="24px" viewBox="0 0 24 24" fill="none" xmlns="http://www.w3.org/2000/svg">
<path d="M15.74 19.3H8.26C7.26625 19.2974 6.31396 18.9014 5.61127 18.1987C4.90858 17.4961 4.51264 16.5438 4.51 15.55V8.45001C4.51264 7.45626 4.90858 6.50397 5.61127 5.80128C6.31396 5.09859 7.26625 4.70265 8.26 4.70001H15.74C16.7338 4.70265 17.686 5.09859 18.3887 5.80128C19.0914 6.50397 19.4874 7.45626 19.49 8.45001V15.55C19.4874 16.5438 19.0914 17.4961 18.3887 18.1987C17.686 18.9014 16.7338 19.2974 15.74 19.3ZM8.26 6.20001C7.96369 6.1987 7.67003 6.25592 7.39589 6.3684C7.12175 6.48089 6.87253 6.64641 6.66254 6.85548C6.45255 7.06454 6.28592 7.31302 6.17222 7.58666C6.05852 7.86029 6 8.15369 6 8.45001V15.55C6 15.8463 6.05852 16.1397 6.17222 16.4134C6.28592 16.687 6.45255 16.9355 6.66254 17.1445C6.87253 17.3536 7.12175 17.5191 7.39589 17.6316C7.67003 17.7441 7.96369 17.8013 8.26 17.8H15.74C16.0363 17.8013 16.33 17.7441 16.6041 17.6316C16.8782 17.5191 17.1275 17.3536 17.3375 17.1445C17.5475 16.9355 17.7141 16.687 17.8278 16.4134C17.9415 16.1397 18 15.8463 18 15.55V8.45001C18 8.15369 17.9415 7.86029 17.8278 7.58666C17.7141 7.31302 17.5475 7.06454 17.3375 6.85548C17.1275 6.64641 16.8782 6.48089 16.6041 6.3684C16.33 6.25592 16.0363 6.1987 15.74 6.20001H8.26Z" fill="black"/>
<path d="M16.13 6.2H7.87C7.67109 6.2 7.48032 6.12099 7.33967 5.98033C7.19902 5.83968 7.12 5.64892 7.12 5.45V2.38001C7.12 2.18109 7.19902 1.99033 7.33967 1.84967C7.48032 1.70902 7.67109 1.63 7.87 1.63H16.13C16.3289 1.63 16.5197 1.70902 16.6603 1.84967C16.801 1.99033 16.88 2.18109 16.88 2.38001V5.45C16.88 5.64892 16.801 5.83968 16.6603 5.98033C16.5197 6.12099 16.3289 6.2 16.13 6.2ZM8.62 4.7H15.38V3.13001H8.62V4.7Z" fill="black"/>
<path d="M16.13 22.37H7.87C7.67109 22.37 7.48032 22.291 7.33967 22.1503C7.19902 22.0097 7.12 21.8189 7.12 21.62V18.55C7.12 18.3511 7.19902 18.1603 7.33967 18.0197C7.48032 17.879 7.67109 17.8 7.87 17.8H16.13C16.3289 17.8 16.5197 17.879 16.6603 18.0197C16.801 18.1603 16.88 18.3511 16.88 18.55V21.62C16.88 21.8189 16.801 22.0097 16.6603 22.1503C16.5197 22.291 16.3289 22.37 16.13 22.37ZM8.62 20.87H15.38V19.3H8.62V20.87Z" fill="black"/>
</svg>
