<?xml version="1.0" encoding="iso-8859-1"?>
<!-- Generator: Adobe Illustrator 19.0.0, SVG Export Plug-In . SVG Version: 6.00 Build 0)  -->
<svg version="1.1" id="Layer_1" xmlns="http://www.w3.org/2000/svg" xmlns:xlink="http://www.w3.org/1999/xlink" x="0px" y="0px"
	 viewBox="0 0 290.627 290.627" style="enable-background:new 0 0 290.627 290.627;" xml:space="preserve">
<g>
	<g>
		<rect x="18.75" y="46.875" style="fill:#F9BA48;" width="253.125" height="37.5"/>
		<path style="fill:#333333;" d="M276.563,28.125h-262.5C6.309,28.125,0,34.435,0,42.188v173.438
			c0,7.753,6.309,14.063,14.063,14.063H93.75v23.438H70.313v9.375h98.438h51.563h56.25c7.753,0,14.063-6.309,14.063-14.063V107.813
			v-9.375v-56.25C290.625,34.435,284.316,28.125,276.563,28.125z M14.063,37.5h262.5c2.587,0,4.688,2.105,4.688,4.688v43.05
			c-1.472-0.525-3.038-0.862-4.688-0.862h-4.688H168.75h-150v93.75h135.938v9.375H9.375V42.188
			C9.375,39.605,11.475,37.5,14.063,37.5z M154.688,103.125h-9.375v9.375h9.375v14.063h-9.375v9.375h9.375V150h-9.375v9.375h9.375
			v9.375H28.125v-75H155.55c-0.525,1.472-0.863,3.037-0.863,4.688v4.687H154.688z M9.375,215.625v-18.75h145.313v23.438H14.063
			C11.475,220.313,9.375,218.208,9.375,215.625z M103.125,229.688h51.563v18.75c0,1.65,0.337,3.216,0.863,4.688h-52.425v-23.438
			H103.125z M281.25,248.438c0,2.583-2.1,4.688-4.688,4.688H225h-4.688H168.75c-2.587,0-4.688-2.105-4.688-4.688v-18.75v-9.375
			v-23.438V187.5v-9.375v-9.375v-9.375V150v-14.063v-9.375V112.5v-9.375v-4.688c0-2.583,2.1-4.688,4.688-4.688h93.75v9.375h-89.063
			V243.75H225h46.875V115.027v-11.902V93.75h4.688c2.587,0,4.688,2.105,4.688,4.688v9.375L281.25,248.438L281.25,248.438z
			 M262.5,115.027v119.348h-79.688V112.5H262.5V115.027z"/>
		<circle style="fill:#333333;" cx="42.188" cy="65.625" r="4.688"/>
		<circle style="fill:#333333;" cx="56.25" cy="65.625" r="4.688"/>
		<circle style="fill:#333333;" cx="70.313" cy="65.625" r="4.688"/>
		<path style="fill:#333333;" d="M37.5,159.375h98.438v-56.25H37.5V159.375z M46.875,112.5h79.688V150H46.875V112.5z"/>
		<circle style="fill:#333333;" cx="225" cy="248.438" r="4.688"/>
		<path style="fill:#333333;" d="M253.125,121.875h-60.938v46.875h60.938V121.875z M243.75,159.375h-42.188V131.25h42.188V159.375z"
			/>
		<rect x="192.188" y="178.125" style="fill:#333333;" width="60.938" height="9.375"/>
		<rect x="192.188" y="196.875" style="fill:#333333;" width="60.938" height="9.375"/>
		<rect x="192.188" y="215.625" style="fill:#333333;" width="60.938" height="9.375"/>
	</g>
</g>
<g>
</g>
<g>
</g>
<g>
</g>
<g>
</g>
<g>
</g>
<g>
</g>
<g>
</g>
<g>
</g>
<g>
</g>
<g>
</g>
<g>
</g>
<g>
</g>
<g>
</g>
<g>
</g>
<g>
</g>
</svg>
